<?xml version="1.0" encoding="UTF-8"?>
<svg xmlns="http://www.w3.org/2000/svg" xmlns:xlink="http://www.w3.org/1999/xlink" width="595.275591pt" height="841.889764pt" viewBox="0 0 595.275591 841.889764" version="1.2">
<g id="surface51360">
<rect x="0" y="0" width="595.275591" height="841.889764" style="fill:rgb(100%,100%,100%);fill-opacity:1;stroke:none;"/>
<path style="fill:none;stroke-width:28;stroke-linecap:round;stroke-linejoin:round;stroke:rgb(0%,0%,0%);stroke-opacity:1;stroke-miterlimit:10;" d="M 28064.0625 21125 L 48473.958333 21125 L 48473.958333 27171.875 L 28064.0625 27171.875 Z M 28064.0625 21125 " transform="matrix(0.015,0,0,0.015,0,0)"/>
<path style="fill:none;stroke-width:28;stroke-linecap:round;stroke-linejoin:round;stroke:rgb(0%,0%,0%);stroke-opacity:1;stroke-miterlimit:10;" d="M 7276.041667 12129.947917 L 48852.083333 12129.947917 L 48852.083333 27550 L 7276.041667 27550 Z M 7276.041667 12129.947917 " transform="matrix(0.015,0,0,0.015,0,0)"/>
<path style="fill:none;stroke-width:28;stroke-linecap:round;stroke-linejoin:round;stroke:rgb(0%,0%,0%);stroke-opacity:1;stroke-miterlimit:10;" d="M 7653.90625 12508.072917 L 48473.958333 12508.072917 L 48473.958333 27171.875 L 7653.90625 27171.875 Z M 7653.90625 12508.072917 " transform="matrix(0.015,0,0,0.015,0,0)"/>
<path style="fill:none;stroke-width:28;stroke-linecap:round;stroke-linejoin:round;stroke:rgb(0%,0%,0%);stroke-opacity:1;stroke-miterlimit:10;" d="M 16725 12508.072917 L 16725 12129.947917 " transform="matrix(0.015,0,0,0.015,0,0)"/>
<path style="fill:none;stroke-width:28;stroke-linecap:round;stroke-linejoin:round;stroke:rgb(0%,0%,0%);stroke-opacity:1;stroke-miterlimit:10;" d="M 26173.958333 12508.072917 L 26173.958333 12129.947917 " transform="matrix(0.015,0,0,0.015,0,0)"/>
<path style="fill:none;stroke-width:28;stroke-linecap:round;stroke-linejoin:round;stroke:rgb(0%,0%,0%);stroke-opacity:1;stroke-miterlimit:10;" d="M 35622.916667 12508.072917 L 35622.916667 12129.947917 " transform="matrix(0.015,0,0,0.015,0,0)"/>
<path style="fill:none;stroke-width:28;stroke-linecap:round;stroke-linejoin:round;stroke:rgb(0%,0%,0%);stroke-opacity:1;stroke-miterlimit:10;" d="M 12188.020833 12429.947917 L 12046.875 12429.947917 " transform="matrix(0.015,0,0,0.015,0,0)"/>
<path style="fill:none;stroke-width:28;stroke-linecap:round;stroke-linejoin:round;stroke:rgb(0%,0%,0%);stroke-opacity:1;stroke-miterlimit:10;" d="M 12117.96875 12429.947917 L 12117.96875 12184.114583 L 12094.010417 12219.010417 L 12071.09375 12242.96875 L 12046.875 12253.90625 " transform="matrix(0.015,0,0,0.015,0,0)"/>
<path style="fill:none;stroke-width:28;stroke-linecap:round;stroke-linejoin:round;stroke:rgb(0%,0%,0%);stroke-opacity:1;stroke-miterlimit:10;" d="M 21496.09375 12208.072917 L 21508.072917 12196.09375 L 21530.989583 12184.114583 L 21590.104167 12184.114583 L 21613.020833 12196.09375 L 21625 12208.072917 L 21636.979167 12230.989583 L 21636.979167 12253.90625 L 21625 12289.0625 L 21484.114583 12429.947917 L 21636.979167 12429.947917 " transform="matrix(0.015,0,0,0.015,0,0)"/>
<path style="fill:none;stroke-width:28;stroke-linecap:round;stroke-linejoin:round;stroke:rgb(0%,0%,0%);stroke-opacity:1;stroke-miterlimit:10;" d="M 30933.072917 12184.114583 L 31084.895833 12184.114583 L 31003.125 12278.125 L 31039.0625 12278.125 L 31061.979167 12289.0625 L 31073.958333 12301.041667 L 31084.895833 12325 L 31084.895833 12383.072917 L 31073.958333 12405.989583 L 31061.979167 12417.96875 L 31039.0625 12429.947917 L 30967.96875 12429.947917 L 30945.052083 12417.96875 L 30933.072917 12405.989583 " transform="matrix(0.015,0,0,0.015,0,0)"/>
<path style="fill:none;stroke-width:28;stroke-linecap:round;stroke-linejoin:round;stroke:rgb(0%,0%,0%);stroke-opacity:1;stroke-miterlimit:10;" d="M 16725 27171.875 L 16725 27550 " transform="matrix(0.015,0,0,0.015,0,0)"/>
<path style="fill:none;stroke-width:28;stroke-linecap:round;stroke-linejoin:round;stroke:rgb(0%,0%,0%);stroke-opacity:1;stroke-miterlimit:10;" d="M 26173.958333 27171.875 L 26173.958333 27550 " transform="matrix(0.015,0,0,0.015,0,0)"/>
<path style="fill:none;stroke-width:28;stroke-linecap:round;stroke-linejoin:round;stroke:rgb(0%,0%,0%);stroke-opacity:1;stroke-miterlimit:10;" d="M 35622.916667 27171.875 L 35622.916667 27550 " transform="matrix(0.015,0,0,0.015,0,0)"/>
<path style="fill:none;stroke-width:28;stroke-linecap:round;stroke-linejoin:round;stroke:rgb(0%,0%,0%);stroke-opacity:1;stroke-miterlimit:10;" d="M 12188.020833 27471.875 L 12046.875 27471.875 " transform="matrix(0.015,0,0,0.015,0,0)"/>
<path style="fill:none;stroke-width:28;stroke-linecap:round;stroke-linejoin:round;stroke:rgb(0%,0%,0%);stroke-opacity:1;stroke-miterlimit:10;" d="M 12117.96875 27471.875 L 12117.96875 27227.083333 L 12094.010417 27261.979167 L 12071.09375 27284.895833 L 12046.875 27296.875 " transform="matrix(0.015,0,0,0.015,0,0)"/>
<path style="fill:none;stroke-width:28;stroke-linecap:round;stroke-linejoin:round;stroke:rgb(0%,0%,0%);stroke-opacity:1;stroke-miterlimit:10;" d="M 21496.09375 27250 L 21508.072917 27238.020833 L 21530.989583 27227.083333 L 21590.104167 27227.083333 L 21613.020833 27238.020833 L 21625 27250 L 21636.979167 27273.958333 L 21636.979167 27296.875 L 21625 27332.03125 L 21484.114583 27471.875 L 21636.979167 27471.875 " transform="matrix(0.015,0,0,0.015,0,0)"/>
<path style="fill:none;stroke-width:28;stroke-linecap:round;stroke-linejoin:round;stroke:rgb(0%,0%,0%);stroke-opacity:1;stroke-miterlimit:10;" d="M 30933.072917 27227.083333 L 31084.895833 27227.083333 L 31003.125 27320.052083 L 31039.0625 27320.052083 L 31061.979167 27332.03125 L 31073.958333 27344.010417 L 31084.895833 27366.927083 L 31084.895833 27426.041667 L 31073.958333 27448.958333 L 31061.979167 27460.9375 L 31039.0625 27471.875 L 30967.96875 27471.875 L 30945.052083 27460.9375 L 30933.072917 27448.958333 " transform="matrix(0.015,0,0,0.015,0,0)"/>
<path style="fill:none;stroke-width:28;stroke-linecap:round;stroke-linejoin:round;stroke:rgb(0%,0%,0%);stroke-opacity:1;stroke-miterlimit:10;" d="M 7276.041667 21578.90625 L 7653.90625 21578.90625 " transform="matrix(0.015,0,0,0.015,0,0)"/>
<path style="fill:none;stroke-width:28;stroke-linecap:round;stroke-linejoin:round;stroke:rgb(0%,0%,0%);stroke-opacity:1;stroke-miterlimit:10;" d="M 7407.03125 16895.052083 L 7523.958333 16895.052083 " transform="matrix(0.015,0,0,0.015,0,0)"/>
<path style="fill:none;stroke-width:28;stroke-linecap:round;stroke-linejoin:round;stroke:rgb(0%,0%,0%);stroke-opacity:1;stroke-miterlimit:10;" d="M 7383.072917 16965.104167 L 7465.104167 16720.052083 L 7546.875 16965.104167 " transform="matrix(0.015,0,0,0.015,0,0)"/>
<path style="fill:none;stroke-width:28;stroke-linecap:round;stroke-linejoin:round;stroke:rgb(0%,0%,0%);stroke-opacity:1;stroke-miterlimit:10;" d="M 7483.072917 26284.895833 L 7517.96875 26296.875 L 7528.90625 26309.114583 L 7540.885417 26332.03125 L 7540.885417 26366.927083 L 7528.90625 26390.885417 L 7517.96875 26402.083333 L 7494.010417 26414.0625 L 7401.041667 26414.0625 L 7401.041667 26167.96875 L 7483.072917 26167.96875 L 7505.989583 26179.947917 L 7517.96875 26191.927083 L 7528.90625 26215.104167 L 7528.90625 26239.0625 L 7517.96875 26261.979167 L 7505.989583 26273.958333 L 7483.072917 26284.895833 L 7401.041667 26284.895833 " transform="matrix(0.015,0,0,0.015,0,0)"/>
<path style="fill:none;stroke-width:28;stroke-linecap:round;stroke-linejoin:round;stroke:rgb(0%,0%,0%);stroke-opacity:1;stroke-miterlimit:10;" d="M 32478.125 26375 L 32478.125 26090.885417 L 32546.09375 26090.885417 L 32585.9375 26104.947917 L 32613.020833 26132.03125 L 32627.083333 26159.114583 L 32640.104167 26213.020833 L 32640.104167 26253.125 L 32627.083333 26307.03125 L 32613.020833 26334.114583 L 32585.9375 26360.9375 L 32546.09375 26375 L 32478.125 26375 " transform="matrix(0.015,0,0,0.015,0,0)"/>
<path style="fill:none;stroke-width:28;stroke-linecap:round;stroke-linejoin:round;stroke:rgb(0%,0%,0%);stroke-opacity:1;stroke-miterlimit:10;" d="M 32883.072917 26375 L 32883.072917 26226.041667 L 32870.052083 26198.958333 L 32842.96875 26185.9375 L 32789.0625 26185.9375 L 32761.979167 26198.958333 " transform="matrix(0.015,0,0,0.015,0,0)"/>
<path style="fill:none;stroke-width:28;stroke-linecap:round;stroke-linejoin:round;stroke:rgb(0%,0%,0%);stroke-opacity:1;stroke-miterlimit:10;" d="M 32883.072917 26360.9375 L 32855.989583 26375 L 32789.0625 26375 L 32761.979167 26360.9375 L 32747.916667 26334.114583 L 32747.916667 26307.03125 L 32761.979167 26279.947917 L 32789.0625 26266.927083 L 32855.989583 26266.927083 L 32883.072917 26253.125 " transform="matrix(0.015,0,0,0.015,0,0)"/>
<path style="fill:none;stroke-width:28;stroke-linecap:round;stroke-linejoin:round;stroke:rgb(0%,0%,0%);stroke-opacity:1;stroke-miterlimit:10;" d="M 32978.125 26185.9375 L 33085.9375 26185.9375 " transform="matrix(0.015,0,0,0.015,0,0)"/>
<path style="fill:none;stroke-width:28;stroke-linecap:round;stroke-linejoin:round;stroke:rgb(0%,0%,0%);stroke-opacity:1;stroke-miterlimit:10;" d="M 33017.96875 26090.885417 L 33017.96875 26334.114583 L 33032.03125 26360.9375 L 33059.114583 26375 L 33085.9375 26375 " transform="matrix(0.015,0,0,0.015,0,0)"/>
<path style="fill:none;stroke-width:28;stroke-linecap:round;stroke-linejoin:round;stroke:rgb(0%,0%,0%);stroke-opacity:1;stroke-miterlimit:10;" d="M 33288.020833 26360.9375 L 33260.9375 26375 L 33207.03125 26375 L 33179.947917 26360.9375 L 33166.927083 26334.114583 L 33166.927083 26226.041667 L 33179.947917 26198.958333 L 33207.03125 26185.9375 L 33260.9375 26185.9375 L 33288.020833 26198.958333 L 33302.083333 26226.041667 L 33302.083333 26253.125 L 33166.927083 26279.947917 " transform="matrix(0.015,0,0,0.015,0,0)"/>
<path style="fill:none;stroke-width:28;stroke-linecap:round;stroke-linejoin:round;stroke:rgb(0%,0%,0%);stroke-opacity:1;stroke-miterlimit:10;" d="M 33422.916667 26347.916667 L 33436.979167 26360.9375 L 33422.916667 26375 L 33409.895833 26360.9375 L 33422.916667 26347.916667 L 33422.916667 26375 " transform="matrix(0.015,0,0,0.015,0,0)"/>
<path style="fill:none;stroke-width:28;stroke-linecap:round;stroke-linejoin:round;stroke:rgb(0%,0%,0%);stroke-opacity:1;stroke-miterlimit:10;" d="M 33422.916667 26198.958333 L 33436.979167 26213.020833 L 33422.916667 26226.041667 L 33409.895833 26213.020833 L 33422.916667 26198.958333 L 33422.916667 26226.041667 " transform="matrix(0.015,0,0,0.015,0,0)"/>
<path style="fill:none;stroke-width:28;stroke-linecap:round;stroke-linejoin:round;stroke:rgb(0%,0%,0%);stroke-opacity:1;stroke-miterlimit:10;" d="M 33760.9375 26117.96875 L 33773.958333 26104.947917 L 33801.041667 26090.885417 L 33869.010417 26090.885417 L 33896.09375 26104.947917 L 33909.114583 26117.96875 L 33922.916667 26145.052083 L 33922.916667 26171.875 L 33909.114583 26213.020833 L 33746.875 26375 L 33922.916667 26375 " transform="matrix(0.015,0,0,0.015,0,0)"/>
<path style="fill:none;stroke-width:28;stroke-linecap:round;stroke-linejoin:round;stroke:rgb(0%,0%,0%);stroke-opacity:1;stroke-miterlimit:10;" d="M 34097.916667 26090.885417 L 34125 26090.885417 L 34152.083333 26104.947917 L 34165.885417 26117.96875 L 34178.90625 26145.052083 L 34192.96875 26198.958333 L 34192.96875 26266.927083 L 34178.90625 26321.09375 L 34165.885417 26347.916667 L 34152.083333 26360.9375 L 34125 26375 L 34097.916667 26375 L 34071.09375 26360.9375 L 34058.072917 26347.916667 L 34044.010417 26321.09375 L 34030.989583 26266.927083 L 34030.989583 26198.958333 L 34044.010417 26145.052083 L 34058.072917 26117.96875 L 34071.09375 26104.947917 L 34097.916667 26090.885417 " transform="matrix(0.015,0,0,0.015,0,0)"/>
<path style="fill:none;stroke-width:28;stroke-linecap:round;stroke-linejoin:round;stroke:rgb(0%,0%,0%);stroke-opacity:1;stroke-miterlimit:10;" d="M 34301.041667 26117.96875 L 34314.0625 26104.947917 L 34340.885417 26090.885417 L 34409.114583 26090.885417 L 34435.9375 26104.947917 L 34448.958333 26117.96875 L 34463.020833 26145.052083 L 34463.020833 26171.875 L 34448.958333 26213.020833 L 34286.979167 26375 L 34463.020833 26375 " transform="matrix(0.015,0,0,0.015,0,0)"/>
<path style="fill:none;stroke-width:28;stroke-linecap:round;stroke-linejoin:round;stroke:rgb(0%,0%,0%);stroke-opacity:1;stroke-miterlimit:10;" d="M 34638.020833 26090.885417 L 34665.104167 26090.885417 L 34691.927083 26104.947917 L 34705.989583 26117.96875 L 34719.010417 26145.052083 L 34733.072917 26198.958333 L 34733.072917 26266.927083 L 34719.010417 26321.09375 L 34705.989583 26347.916667 L 34691.927083 26360.9375 L 34665.104167 26375 L 34638.020833 26375 L 34610.9375 26360.9375 L 34597.916667 26347.916667 L 34584.114583 26321.09375 L 34571.09375 26266.927083 L 34571.09375 26198.958333 L 34584.114583 26145.052083 L 34597.916667 26117.96875 L 34610.9375 26104.947917 L 34638.020833 26090.885417 " transform="matrix(0.015,0,0,0.015,0,0)"/>
<path style="fill:none;stroke-width:28;stroke-linecap:round;stroke-linejoin:round;stroke:rgb(0%,0%,0%);stroke-opacity:1;stroke-miterlimit:10;" d="M 34853.90625 26266.927083 L 35070.052083 26266.927083 " transform="matrix(0.015,0,0,0.015,0,0)"/>
<path style="fill:none;stroke-width:28;stroke-linecap:round;stroke-linejoin:round;stroke:rgb(0%,0%,0%);stroke-opacity:1;stroke-miterlimit:10;" d="M 35353.90625 26375 L 35191.927083 26375 " transform="matrix(0.015,0,0,0.015,0,0)"/>
<path style="fill:none;stroke-width:28;stroke-linecap:round;stroke-linejoin:round;stroke:rgb(0%,0%,0%);stroke-opacity:1;stroke-miterlimit:10;" d="M 35272.916667 26375 L 35272.916667 26090.885417 L 35246.09375 26132.03125 L 35219.010417 26159.114583 L 35191.927083 26171.875 " transform="matrix(0.015,0,0,0.015,0,0)"/>
<path style="fill:none;stroke-width:28;stroke-linecap:round;stroke-linejoin:round;stroke:rgb(0%,0%,0%);stroke-opacity:1;stroke-miterlimit:10;" d="M 35622.916667 26375 L 35461.979167 26375 " transform="matrix(0.015,0,0,0.015,0,0)"/>
<path style="fill:none;stroke-width:28;stroke-linecap:round;stroke-linejoin:round;stroke:rgb(0%,0%,0%);stroke-opacity:1;stroke-miterlimit:10;" d="M 35541.927083 26375 L 35541.927083 26090.885417 L 35515.885417 26132.03125 L 35489.0625 26159.114583 L 35461.979167 26171.875 " transform="matrix(0.015,0,0,0.015,0,0)"/>
<path style="fill:none;stroke-width:28;stroke-linecap:round;stroke-linejoin:round;stroke:rgb(0%,0%,0%);stroke-opacity:1;stroke-miterlimit:10;" d="M 35745.052083 26266.927083 L 35960.9375 26266.927083 " transform="matrix(0.015,0,0,0.015,0,0)"/>
<path style="fill:none;stroke-width:28;stroke-linecap:round;stroke-linejoin:round;stroke:rgb(0%,0%,0%);stroke-opacity:1;stroke-miterlimit:10;" d="M 36150 26090.885417 L 36177.083333 26090.885417 L 36203.90625 26104.947917 L 36216.927083 26117.96875 L 36230.989583 26145.052083 L 36244.010417 26198.958333 L 36244.010417 26266.927083 L 36230.989583 26321.09375 L 36216.927083 26347.916667 L 36203.90625 26360.9375 L 36177.083333 26375 L 36150 26375 L 36122.916667 26360.9375 L 36109.114583 26347.916667 L 36096.09375 26321.09375 L 36082.03125 26266.927083 L 36082.03125 26198.958333 L 36096.09375 26145.052083 L 36109.114583 26117.96875 L 36122.916667 26104.947917 L 36150 26090.885417 " transform="matrix(0.015,0,0,0.015,0,0)"/>
<path style="fill:none;stroke-width:28;stroke-linecap:round;stroke-linejoin:round;stroke:rgb(0%,0%,0%);stroke-opacity:1;stroke-miterlimit:10;" d="M 36486.979167 26090.885417 L 36433.072917 26090.885417 L 36405.989583 26104.947917 L 36392.96875 26117.96875 L 36365.885417 26159.114583 L 36352.083333 26213.020833 L 36352.083333 26321.09375 L 36365.885417 26347.916667 L 36378.90625 26360.9375 L 36405.989583 26375 L 36459.895833 26375 L 36486.979167 26360.9375 L 36501.041667 26347.916667 L 36514.0625 26321.09375 L 36514.0625 26253.125 L 36501.041667 26226.041667 L 36486.979167 26213.020833 L 36459.895833 26198.958333 L 36405.989583 26198.958333 L 36378.90625 26213.020833 L 36365.885417 26226.041667 L 36352.083333 26253.125 " transform="matrix(0.015,0,0,0.015,0,0)"/>
<path style="fill:none;stroke-width:28;stroke-linecap:round;stroke-linejoin:round;stroke:rgb(0%,0%,0%);stroke-opacity:1;stroke-miterlimit:10;" d="M 28064.0625 26510.9375 L 48473.958333 26510.9375 " transform="matrix(0.015,0,0,0.015,0,0)"/>
<path style="fill:none;stroke-width:28;stroke-linecap:round;stroke-linejoin:round;stroke:rgb(0%,0%,0%);stroke-opacity:1;stroke-miterlimit:10;" d="M 28321.09375 26903.90625 L 28321.09375 26620.052083 " transform="matrix(0.015,0,0,0.015,0,0)"/>
<path style="fill:none;stroke-width:28;stroke-linecap:round;stroke-linejoin:round;stroke:rgb(0%,0%,0%);stroke-opacity:1;stroke-miterlimit:10;" d="M 28483.072917 26903.90625 L 28360.9375 26741.927083 " transform="matrix(0.015,0,0,0.015,0,0)"/>
<path style="fill:none;stroke-width:28;stroke-linecap:round;stroke-linejoin:round;stroke:rgb(0%,0%,0%);stroke-opacity:1;stroke-miterlimit:10;" d="M 28483.072917 26620.052083 L 28321.09375 26782.03125 " transform="matrix(0.015,0,0,0.015,0,0)"/>
<path style="fill:none;stroke-width:28;stroke-linecap:round;stroke-linejoin:round;stroke:rgb(0%,0%,0%);stroke-opacity:1;stroke-miterlimit:10;" d="M 28603.90625 26903.90625 L 28603.90625 26715.104167 " transform="matrix(0.015,0,0,0.015,0,0)"/>
<path style="fill:none;stroke-width:28;stroke-linecap:round;stroke-linejoin:round;stroke:rgb(0%,0%,0%);stroke-opacity:1;stroke-miterlimit:10;" d="M 28603.90625 26620.052083 L 28590.885417 26634.114583 L 28603.90625 26646.875 L 28617.96875 26634.114583 L 28603.90625 26620.052083 L 28603.90625 26646.875 " transform="matrix(0.015,0,0,0.015,0,0)"/>
<path style="fill:none;stroke-width:28;stroke-linecap:round;stroke-linejoin:round;stroke:rgb(0%,0%,0%);stroke-opacity:1;stroke-miterlimit:10;" d="M 28901.041667 26877.083333 L 28888.020833 26890.104167 L 28846.875 26903.90625 L 28820.052083 26903.90625 L 28779.947917 26890.104167 L 28753.125 26863.020833 L 28739.0625 26835.9375 L 28726.041667 26782.03125 L 28726.041667 26741.927083 L 28739.0625 26688.020833 L 28753.125 26660.9375 L 28779.947917 26634.114583 L 28820.052083 26620.052083 L 28846.875 26620.052083 L 28888.020833 26634.114583 L 28901.041667 26646.875 " transform="matrix(0.015,0,0,0.015,0,0)"/>
<path style="fill:none;stroke-width:28;stroke-linecap:round;stroke-linejoin:round;stroke:rgb(0%,0%,0%);stroke-opacity:1;stroke-miterlimit:10;" d="M 29144.010417 26903.90625 L 29144.010417 26754.947917 L 29130.989583 26728.125 L 29103.90625 26715.104167 L 29050 26715.104167 L 29022.916667 26728.125 " transform="matrix(0.015,0,0,0.015,0,0)"/>
<path style="fill:none;stroke-width:28;stroke-linecap:round;stroke-linejoin:round;stroke:rgb(0%,0%,0%);stroke-opacity:1;stroke-miterlimit:10;" d="M 29144.010417 26890.104167 L 29116.927083 26903.90625 L 29050 26903.90625 L 29022.916667 26890.104167 L 29009.114583 26863.020833 L 29009.114583 26835.9375 L 29022.916667 26809.114583 L 29050 26796.09375 L 29116.927083 26796.09375 L 29144.010417 26782.03125 " transform="matrix(0.015,0,0,0.015,0,0)"/>
<path style="fill:none;stroke-width:28;stroke-linecap:round;stroke-linejoin:round;stroke:rgb(0%,0%,0%);stroke-opacity:1;stroke-miterlimit:10;" d="M 29401.041667 26903.90625 L 29401.041667 26620.052083 " transform="matrix(0.015,0,0,0.015,0,0)"/>
<path style="fill:none;stroke-width:28;stroke-linecap:round;stroke-linejoin:round;stroke:rgb(0%,0%,0%);stroke-opacity:1;stroke-miterlimit:10;" d="M 29401.041667 26890.104167 L 29373.958333 26903.90625 L 29320.052083 26903.90625 L 29292.96875 26890.104167 L 29278.90625 26877.083333 L 29265.885417 26850 L 29265.885417 26769.010417 L 29278.90625 26741.927083 L 29292.96875 26728.125 L 29320.052083 26715.104167 L 29373.958333 26715.104167 L 29401.041667 26728.125 " transform="matrix(0.015,0,0,0.015,0,0)"/>
<path style="fill:none;stroke-width:28;stroke-linecap:round;stroke-linejoin:round;stroke:rgb(0%,0%,0%);stroke-opacity:1;stroke-miterlimit:10;" d="M 29752.083333 26754.947917 L 29846.09375 26754.947917 " transform="matrix(0.015,0,0,0.015,0,0)"/>
<path style="fill:none;stroke-width:28;stroke-linecap:round;stroke-linejoin:round;stroke:rgb(0%,0%,0%);stroke-opacity:1;stroke-miterlimit:10;" d="M 29886.979167 26903.90625 L 29752.083333 26903.90625 L 29752.083333 26620.052083 L 29886.979167 26620.052083 " transform="matrix(0.015,0,0,0.015,0,0)"/>
<path style="fill:none;stroke-width:28;stroke-linecap:round;stroke-linejoin:round;stroke:rgb(0%,0%,0%);stroke-opacity:1;stroke-miterlimit:10;" d="M 30008.072917 26877.083333 L 30021.875 26890.104167 L 30008.072917 26903.90625 L 29995.052083 26890.104167 L 30008.072917 26877.083333 L 30008.072917 26903.90625 " transform="matrix(0.015,0,0,0.015,0,0)"/>
<path style="fill:none;stroke-width:28;stroke-linecap:round;stroke-linejoin:round;stroke:rgb(0%,0%,0%);stroke-opacity:1;stroke-miterlimit:10;" d="M 30142.96875 26903.90625 L 30142.96875 26620.052083 L 30210.9375 26620.052083 L 30251.041667 26634.114583 L 30278.125 26660.9375 L 30291.927083 26688.020833 L 30304.947917 26741.927083 L 30304.947917 26782.03125 L 30291.927083 26835.9375 L 30278.125 26863.020833 L 30251.041667 26890.104167 L 30210.9375 26903.90625 L 30142.96875 26903.90625 " transform="matrix(0.015,0,0,0.015,0,0)"/>
<path style="fill:none;stroke-width:28;stroke-linecap:round;stroke-linejoin:round;stroke:rgb(0%,0%,0%);stroke-opacity:1;stroke-miterlimit:10;" d="M 30427.083333 26877.083333 L 30440.104167 26890.104167 L 30427.083333 26903.90625 L 30413.020833 26890.104167 L 30427.083333 26877.083333 L 30427.083333 26903.90625 " transform="matrix(0.015,0,0,0.015,0,0)"/>
<path style="fill:none;stroke-width:28;stroke-linecap:round;stroke-linejoin:round;stroke:rgb(0%,0%,0%);stroke-opacity:1;stroke-miterlimit:10;" d="M 30547.916667 26822.916667 L 30683.072917 26822.916667 " transform="matrix(0.015,0,0,0.015,0,0)"/>
<path style="fill:none;stroke-width:28;stroke-linecap:round;stroke-linejoin:round;stroke:rgb(0%,0%,0%);stroke-opacity:1;stroke-miterlimit:10;" d="M 30521.09375 26903.90625 L 30615.885417 26620.052083 L 30709.895833 26903.90625 " transform="matrix(0.015,0,0,0.015,0,0)"/>
<path style="fill:none;stroke-width:28;stroke-linecap:round;stroke-linejoin:round;stroke:rgb(0%,0%,0%);stroke-opacity:1;stroke-miterlimit:10;" d="M 30804.947917 26877.083333 L 30817.96875 26890.104167 L 30804.947917 26903.90625 L 30790.885417 26890.104167 L 30804.947917 26877.083333 L 30804.947917 26903.90625 " transform="matrix(0.015,0,0,0.015,0,0)"/>
<path style="fill:none;stroke-width:28;stroke-linecap:round;stroke-linejoin:round;stroke:rgb(0%,0%,0%);stroke-opacity:1;stroke-miterlimit:10;" d="M 31371.875 26903.90625 L 31371.875 26620.052083 " transform="matrix(0.015,0,0,0.015,0,0)"/>
<path style="fill:none;stroke-width:28;stroke-linecap:round;stroke-linejoin:round;stroke:rgb(0%,0%,0%);stroke-opacity:1;stroke-miterlimit:10;" d="M 31398.958333 26796.09375 L 31479.947917 26903.90625 " transform="matrix(0.015,0,0,0.015,0,0)"/>
<path style="fill:none;stroke-width:28;stroke-linecap:round;stroke-linejoin:round;stroke:rgb(0%,0%,0%);stroke-opacity:1;stroke-miterlimit:10;" d="M 31479.947917 26715.104167 L 31371.875 26822.916667 " transform="matrix(0.015,0,0,0.015,0,0)"/>
<path style="fill:none;stroke-width:28;stroke-linecap:round;stroke-linejoin:round;stroke:rgb(0%,0%,0%);stroke-opacity:1;stroke-miterlimit:10;" d="M 31601.041667 26903.90625 L 31601.041667 26715.104167 " transform="matrix(0.015,0,0,0.015,0,0)"/>
<path style="fill:none;stroke-width:28;stroke-linecap:round;stroke-linejoin:round;stroke:rgb(0%,0%,0%);stroke-opacity:1;stroke-miterlimit:10;" d="M 31601.041667 26620.052083 L 31586.979167 26634.114583 L 31601.041667 26646.875 L 31614.0625 26634.114583 L 31601.041667 26620.052083 L 31601.041667 26646.875 " transform="matrix(0.015,0,0,0.015,0,0)"/>
<path style="fill:none;stroke-width:28;stroke-linecap:round;stroke-linejoin:round;stroke:rgb(0%,0%,0%);stroke-opacity:1;stroke-miterlimit:10;" d="M 31857.03125 26890.104167 L 31829.947917 26903.90625 L 31776.041667 26903.90625 L 31748.958333 26890.104167 L 31735.9375 26877.083333 L 31721.875 26850 L 31721.875 26769.010417 L 31735.9375 26741.927083 L 31748.958333 26728.125 L 31776.041667 26715.104167 L 31829.947917 26715.104167 L 31857.03125 26728.125 " transform="matrix(0.015,0,0,0.015,0,0)"/>
<path style="fill:none;stroke-width:28;stroke-linecap:round;stroke-linejoin:round;stroke:rgb(0%,0%,0%);stroke-opacity:1;stroke-miterlimit:10;" d="M 32100 26903.90625 L 32100 26754.947917 L 32086.979167 26728.125 L 32059.895833 26715.104167 L 32005.989583 26715.104167 L 31978.90625 26728.125 " transform="matrix(0.015,0,0,0.015,0,0)"/>
<path style="fill:none;stroke-width:28;stroke-linecap:round;stroke-linejoin:round;stroke:rgb(0%,0%,0%);stroke-opacity:1;stroke-miterlimit:10;" d="M 32100 26890.104167 L 32072.916667 26903.90625 L 32005.989583 26903.90625 L 31978.90625 26890.104167 L 31965.104167 26863.020833 L 31965.104167 26835.9375 L 31978.90625 26809.114583 L 32005.989583 26796.09375 L 32072.916667 26796.09375 L 32100 26782.03125 " transform="matrix(0.015,0,0,0.015,0,0)"/>
<path style="fill:none;stroke-width:28;stroke-linecap:round;stroke-linejoin:round;stroke:rgb(0%,0%,0%);stroke-opacity:1;stroke-miterlimit:10;" d="M 32357.03125 26903.90625 L 32357.03125 26620.052083 " transform="matrix(0.015,0,0,0.015,0,0)"/>
<path style="fill:none;stroke-width:28;stroke-linecap:round;stroke-linejoin:round;stroke:rgb(0%,0%,0%);stroke-opacity:1;stroke-miterlimit:10;" d="M 32357.03125 26890.104167 L 32329.947917 26903.90625 L 32276.041667 26903.90625 L 32248.958333 26890.104167 L 32234.895833 26877.083333 L 32221.875 26850 L 32221.875 26769.010417 L 32234.895833 26741.927083 L 32248.958333 26728.125 L 32276.041667 26715.104167 L 32329.947917 26715.104167 L 32357.03125 26728.125 " transform="matrix(0.015,0,0,0.015,0,0)"/>
<path style="fill:none;stroke-width:28;stroke-linecap:round;stroke-linejoin:round;stroke:rgb(0%,0%,0%);stroke-opacity:1;stroke-miterlimit:10;" d="M 32842.96875 26620.052083 L 32708.072917 26620.052083 L 32694.010417 26754.947917 L 32708.072917 26741.927083 L 32734.895833 26728.125 L 32802.083333 26728.125 L 32828.90625 26741.927083 L 32842.96875 26754.947917 L 32855.989583 26782.03125 L 32855.989583 26850 L 32842.96875 26877.083333 L 32828.90625 26890.104167 L 32802.083333 26903.90625 L 32734.895833 26903.90625 L 32708.072917 26890.104167 L 32694.010417 26877.083333 " transform="matrix(0.015,0,0,0.015,0,0)"/>
<path style="fill:none;stroke-width:28;stroke-linecap:round;stroke-linejoin:round;stroke:rgb(0%,0%,0%);stroke-opacity:1;stroke-miterlimit:10;" d="M 32978.125 26877.083333 L 32990.885417 26890.104167 L 32978.125 26903.90625 L 32964.0625 26890.104167 L 32978.125 26877.083333 L 32978.125 26903.90625 " transform="matrix(0.015,0,0,0.015,0,0)"/>
<path style="fill:none;stroke-width:28;stroke-linecap:round;stroke-linejoin:round;stroke:rgb(0%,0%,0%);stroke-opacity:1;stroke-miterlimit:10;" d="M 33260.9375 26903.90625 L 33098.958333 26903.90625 " transform="matrix(0.015,0,0,0.015,0,0)"/>
<path style="fill:none;stroke-width:28;stroke-linecap:round;stroke-linejoin:round;stroke:rgb(0%,0%,0%);stroke-opacity:1;stroke-miterlimit:10;" d="M 33179.947917 26903.90625 L 33179.947917 26620.052083 L 33153.125 26660.9375 L 33126.041667 26688.020833 L 33098.958333 26701.041667 " transform="matrix(0.015,0,0,0.015,0,0)"/>
<path style="fill:none;stroke-width:28;stroke-linecap:round;stroke-linejoin:round;stroke:rgb(0%,0%,0%);stroke-opacity:1;stroke-miterlimit:10;" d="M 33383.072917 26877.083333 L 33396.09375 26890.104167 L 33383.072917 26903.90625 L 33369.010417 26890.104167 L 33383.072917 26877.083333 L 33383.072917 26903.90625 " transform="matrix(0.015,0,0,0.015,0,0)"/>
<path style="fill:none;stroke-width:28;stroke-linecap:round;stroke-linejoin:round;stroke:rgb(0%,0%,0%);stroke-opacity:1;stroke-miterlimit:10;" d="M 33639.0625 26620.052083 L 33584.895833 26620.052083 L 33558.072917 26634.114583 L 33545.052083 26646.875 L 33517.96875 26688.020833 L 33503.90625 26741.927083 L 33503.90625 26850 L 33517.96875 26877.083333 L 33530.989583 26890.104167 L 33558.072917 26903.90625 L 33611.979167 26903.90625 L 33639.0625 26890.104167 L 33653.125 26877.083333 L 33665.885417 26850 L 33665.885417 26782.03125 L 33653.125 26754.947917 L 33639.0625 26741.927083 L 33611.979167 26728.125 L 33558.072917 26728.125 L 33530.989583 26741.927083 L 33517.96875 26754.947917 L 33503.90625 26782.03125 " transform="matrix(0.015,0,0,0.015,0,0)"/>
<path style="fill:none;stroke-width:28;stroke-linecap:round;stroke-linejoin:round;stroke:rgb(0%,0%,0%);stroke-opacity:1;stroke-miterlimit:10;" d="M 28064.0625 25944.010417 L 48473.958333 25944.010417 " transform="matrix(0.015,0,0,0.015,0,0)"/>
<path style="fill:none;stroke-width:28;stroke-linecap:round;stroke-linejoin:round;stroke:rgb(0%,0%,0%);stroke-opacity:1;stroke-miterlimit:10;" d="M 28307.03125 26360.9375 L 28347.916667 26375 L 28415.104167 26375 L 28441.927083 26360.9375 L 28455.989583 26347.916667 L 28469.010417 26321.09375 L 28469.010417 26294.010417 L 28455.989583 26266.927083 L 28441.927083 26253.125 L 28415.104167 26240.104167 L 28360.9375 26226.041667 L 28334.114583 26213.020833 L 28321.09375 26198.958333 L 28307.03125 26171.875 L 28307.03125 26145.052083 L 28321.09375 26117.96875 L 28334.114583 26104.947917 L 28360.9375 26090.885417 L 28428.90625 26090.885417 L 28469.010417 26104.947917 " transform="matrix(0.015,0,0,0.015,0,0)"/>
<path style="fill:none;stroke-width:28;stroke-linecap:round;stroke-linejoin:round;stroke:rgb(0%,0%,0%);stroke-opacity:1;stroke-miterlimit:10;" d="M 28590.885417 26375 L 28590.885417 26185.9375 " transform="matrix(0.015,0,0,0.015,0,0)"/>
<path style="fill:none;stroke-width:28;stroke-linecap:round;stroke-linejoin:round;stroke:rgb(0%,0%,0%);stroke-opacity:1;stroke-miterlimit:10;" d="M 28590.885417 26090.885417 L 28577.083333 26104.947917 L 28590.885417 26117.96875 L 28603.90625 26104.947917 L 28590.885417 26090.885417 L 28590.885417 26117.96875 " transform="matrix(0.015,0,0,0.015,0,0)"/>
<path style="fill:none;stroke-width:28;stroke-linecap:round;stroke-linejoin:round;stroke:rgb(0%,0%,0%);stroke-opacity:1;stroke-miterlimit:10;" d="M 28698.958333 26185.9375 L 28846.875 26185.9375 L 28698.958333 26375 L 28846.875 26375 " transform="matrix(0.015,0,0,0.015,0,0)"/>
<path style="fill:none;stroke-width:28;stroke-linecap:round;stroke-linejoin:round;stroke:rgb(0%,0%,0%);stroke-opacity:1;stroke-miterlimit:10;" d="M 29063.020833 26360.9375 L 29035.9375 26375 L 28982.03125 26375 L 28954.947917 26360.9375 L 28941.927083 26334.114583 L 28941.927083 26226.041667 L 28954.947917 26198.958333 L 28982.03125 26185.9375 L 29035.9375 26185.9375 L 29063.020833 26198.958333 L 29077.083333 26226.041667 L 29077.083333 26253.125 L 28941.927083 26279.947917 " transform="matrix(0.015,0,0,0.015,0,0)"/>
<path style="fill:none;stroke-width:28;stroke-linecap:round;stroke-linejoin:round;stroke:rgb(0%,0%,0%);stroke-opacity:1;stroke-miterlimit:10;" d="M 29197.916667 26347.916667 L 29211.979167 26360.9375 L 29197.916667 26375 L 29184.895833 26360.9375 L 29197.916667 26347.916667 L 29197.916667 26375 " transform="matrix(0.015,0,0,0.015,0,0)"/>
<path style="fill:none;stroke-width:28;stroke-linecap:round;stroke-linejoin:round;stroke:rgb(0%,0%,0%);stroke-opacity:1;stroke-miterlimit:10;" d="M 29197.916667 26198.958333 L 29211.979167 26213.020833 L 29197.916667 26226.041667 L 29184.895833 26213.020833 L 29197.916667 26198.958333 L 29197.916667 26226.041667 " transform="matrix(0.015,0,0,0.015,0,0)"/>
<path style="fill:none;stroke-width:28;stroke-linecap:round;stroke-linejoin:round;stroke:rgb(0%,0%,0%);stroke-opacity:1;stroke-miterlimit:10;" d="M 29548.958333 26090.885417 L 29548.958333 26321.09375 L 29563.020833 26347.916667 L 29576.041667 26360.9375 L 29603.125 26375 L 29657.03125 26375 L 29684.114583 26360.9375 L 29697.916667 26347.916667 L 29710.9375 26321.09375 L 29710.9375 26090.885417 " transform="matrix(0.015,0,0,0.015,0,0)"/>
<path style="fill:none;stroke-width:28;stroke-linecap:round;stroke-linejoin:round;stroke:rgb(0%,0%,0%);stroke-opacity:1;stroke-miterlimit:10;" d="M 29833.072917 26360.9375 L 29859.895833 26375 L 29914.0625 26375 L 29940.885417 26360.9375 L 29953.90625 26334.114583 L 29953.90625 26321.09375 L 29940.885417 26294.010417 L 29914.0625 26279.947917 L 29872.916667 26279.947917 L 29846.09375 26266.927083 L 29833.072917 26240.104167 L 29833.072917 26226.041667 L 29846.09375 26198.958333 L 29872.916667 26185.9375 L 29914.0625 26185.9375 L 29940.885417 26198.958333 " transform="matrix(0.015,0,0,0.015,0,0)"/>
<path style="fill:none;stroke-width:28;stroke-linecap:round;stroke-linejoin:round;stroke:rgb(0%,0%,0%);stroke-opacity:1;stroke-miterlimit:10;" d="M 30184.114583 26360.9375 L 30157.03125 26375 L 30103.125 26375 L 30076.041667 26360.9375 L 30061.979167 26334.114583 L 30061.979167 26226.041667 L 30076.041667 26198.958333 L 30103.125 26185.9375 L 30157.03125 26185.9375 L 30184.114583 26198.958333 L 30196.875 26226.041667 L 30196.875 26253.125 L 30061.979167 26279.947917 " transform="matrix(0.015,0,0,0.015,0,0)"/>
<path style="fill:none;stroke-width:28;stroke-linecap:round;stroke-linejoin:round;stroke:rgb(0%,0%,0%);stroke-opacity:1;stroke-miterlimit:10;" d="M 30319.010417 26375 L 30319.010417 26185.9375 " transform="matrix(0.015,0,0,0.015,0,0)"/>
<path style="fill:none;stroke-width:28;stroke-linecap:round;stroke-linejoin:round;stroke:rgb(0%,0%,0%);stroke-opacity:1;stroke-miterlimit:10;" d="M 30319.010417 26240.104167 L 30332.03125 26213.020833 L 30346.09375 26198.958333 L 30372.916667 26185.9375 L 30400 26185.9375 " transform="matrix(0.015,0,0,0.015,0,0)"/>
<path style="fill:none;stroke-width:28;stroke-linecap:round;stroke-linejoin:round;stroke:rgb(0%,0%,0%);stroke-opacity:1;stroke-miterlimit:10;" d="M 28064.0625 25188.020833 L 48473.958333 25188.020833 " transform="matrix(0.015,0,0,0.015,0,0)"/>
<path style="fill:none;stroke-width:1;stroke-linecap:butt;stroke-linejoin:miter;stroke:rgb(0%,0%,0%);stroke-opacity:1;stroke-miterlimit:10;" d="M 28339.583333 25321.614583 L 28555.46875 25321.614583 " transform="matrix(0.015,0,0,0.015,0,0)"/>
<path style="fill:none;stroke-width:1;stroke-linecap:butt;stroke-linejoin:miter;stroke:rgb(0%,0%,0%);stroke-opacity:1;stroke-miterlimit:10;" d="M 28400.520833 25699.479167 L 28447.395833 25321.614583 " transform="matrix(0.015,0,0,0.015,0,0)"/>
<path style="fill:none;stroke-width:1;stroke-linecap:butt;stroke-linejoin:miter;stroke:rgb(0%,0%,0%);stroke-opacity:1;stroke-miterlimit:10;" d="M 28634.375 25699.479167 L 28665.625 25447.395833 " transform="matrix(0.015,0,0,0.015,0,0)"/>
<path style="fill:none;stroke-width:1;stroke-linecap:butt;stroke-linejoin:miter;stroke:rgb(0%,0%,0%);stroke-opacity:1;stroke-miterlimit:10;" d="M 28681.510417 25321.614583 L 28661.458333 25339.583333 L 28676.5625 25357.552083 L 28697.395833 25339.583333 L 28681.510417 25321.614583 L 28676.5625 25357.552083 " transform="matrix(0.015,0,0,0.015,0,0)"/>
<path style="fill:none;stroke-width:1;stroke-linecap:butt;stroke-linejoin:miter;stroke:rgb(0%,0%,0%);stroke-opacity:1;stroke-miterlimit:10;" d="M 28791.40625 25447.395833 L 28935.416667 25447.395833 " transform="matrix(0.015,0,0,0.015,0,0)"/>
<path style="fill:none;stroke-width:1;stroke-linecap:butt;stroke-linejoin:miter;stroke:rgb(0%,0%,0%);stroke-opacity:1;stroke-miterlimit:10;" d="M 28861.458333 25321.614583 L 28820.572917 25645.572917 L 28834.375 25681.510417 L 28868.489583 25699.479167 L 28904.427083 25699.479167 " transform="matrix(0.015,0,0,0.015,0,0)"/>
<path style="fill:none;stroke-width:1;stroke-linecap:butt;stroke-linejoin:miter;stroke:rgb(0%,0%,0%);stroke-opacity:1;stroke-miterlimit:10;" d="M 29084.375 25699.479167 L 29050.520833 25681.510417 L 29036.458333 25645.572917 L 29077.604167 25321.614583 " transform="matrix(0.015,0,0,0.015,0,0)"/>
<path style="fill:none;stroke-width:1;stroke-linecap:butt;stroke-linejoin:miter;stroke:rgb(0%,0%,0%);stroke-opacity:1;stroke-miterlimit:10;" d="M 29374.479167 25681.510417 L 29336.458333 25699.479167 L 29264.583333 25699.479167 L 29230.46875 25681.510417 L 29216.40625 25645.572917 L 29234.375 25501.5625 L 29257.552083 25465.625 L 29295.572917 25447.395833 L 29367.447917 25447.395833 L 29401.5625 25465.625 L 29414.583333 25501.5625 L 29410.416667 25537.5 L 29225.520833 25573.4375 " transform="matrix(0.015,0,0,0.015,0,0)"/>
<path style="fill:none;stroke-width:1;stroke-linecap:butt;stroke-linejoin:miter;stroke:rgb(0%,0%,0%);stroke-opacity:1;stroke-miterlimit:10;" d="M 29556.510417 25663.541667 L 29572.395833 25681.510417 L 29551.5625 25699.479167 L 29536.458333 25681.510417 L 29556.510417 25663.541667 L 29551.5625 25699.479167 " transform="matrix(0.015,0,0,0.015,0,0)"/>
<path style="fill:none;stroke-width:1;stroke-linecap:butt;stroke-linejoin:miter;stroke:rgb(0%,0%,0%);stroke-opacity:1;stroke-miterlimit:10;" d="M 29581.510417 25465.625 L 29596.614583 25483.59375 L 29576.5625 25501.5625 L 29560.416667 25483.59375 L 29581.510417 25465.625 L 29576.5625 25501.5625 " transform="matrix(0.015,0,0,0.015,0,0)"/>
<path style="fill:none;stroke-width:1;stroke-linecap:butt;stroke-linejoin:miter;stroke:rgb(0%,0%,0%);stroke-opacity:1;stroke-miterlimit:10;" d="M 30235.416667 25699.479167 L 30132.552083 25519.53125 " transform="matrix(0.015,0,0,0.015,0,0)"/>
<path style="fill:none;stroke-width:1;stroke-linecap:butt;stroke-linejoin:miter;stroke:rgb(0%,0%,0%);stroke-opacity:1;stroke-miterlimit:10;" d="M 30019.53125 25699.479167 L 30067.447917 25321.614583 L 30211.458333 25321.614583 L 30244.53125 25339.583333 L 30260.416667 25357.552083 L 30274.479167 25393.489583 L 30267.447917 25447.395833 L 30244.53125 25483.59375 L 30224.479167 25501.5625 L 30186.458333 25519.53125 L 30042.447917 25519.53125 " transform="matrix(0.015,0,0,0.015,0,0)"/>
<path style="fill:none;stroke-width:1;stroke-linecap:butt;stroke-linejoin:miter;stroke:rgb(0%,0%,0%);stroke-opacity:1;stroke-miterlimit:10;" d="M 30544.53125 25681.510417 L 30505.46875 25699.479167 L 30433.59375 25699.479167 L 30400.520833 25681.510417 L 30386.458333 25645.572917 L 30404.427083 25501.5625 L 30427.604167 25465.625 L 30465.625 25447.395833 L 30537.5 25447.395833 L 30571.614583 25465.625 L 30584.375 25501.5625 L 30580.46875 25537.5 L 30395.572917 25573.4375 " transform="matrix(0.015,0,0,0.015,0,0)"/>
<path style="fill:none;stroke-width:1;stroke-linecap:butt;stroke-linejoin:miter;stroke:rgb(0%,0%,0%);stroke-opacity:1;stroke-miterlimit:10;" d="M 30717.447917 25447.395833 L 30775.520833 25699.479167 L 30897.395833 25447.395833 " transform="matrix(0.015,0,0,0.015,0,0)"/>
<path style="fill:none;stroke-width:1;stroke-linecap:butt;stroke-linejoin:miter;stroke:rgb(0%,0%,0%);stroke-opacity:1;stroke-miterlimit:10;" d="M 31063.541667 25699.479167 L 31030.46875 25681.510417 L 31014.583333 25663.541667 L 31000.520833 25627.604167 L 31014.583333 25519.53125 L 31036.458333 25483.59375 L 31057.552083 25465.625 L 31095.572917 25447.395833 L 31149.479167 25447.395833 L 31183.59375 25465.625 L 31198.4375 25483.59375 L 31212.5 25519.53125 L 31198.4375 25627.604167 L 31176.5625 25663.541667 L 31156.510417 25681.510417 L 31117.447917 25699.479167 L 31063.541667 25699.479167 " transform="matrix(0.015,0,0,0.015,0,0)"/>
<path style="fill:none;stroke-width:1;stroke-linecap:butt;stroke-linejoin:miter;stroke:rgb(0%,0%,0%);stroke-opacity:1;stroke-miterlimit:10;" d="M 31650.520833 25321.614583 L 31902.604167 25321.614583 L 31603.385417 25699.479167 L 31855.46875 25699.479167 " transform="matrix(0.015,0,0,0.015,0,0)"/>
<path style="fill:none;stroke-width:1;stroke-linecap:butt;stroke-linejoin:miter;stroke:rgb(0%,0%,0%);stroke-opacity:1;stroke-miterlimit:10;" d="M 32438.541667 25501.5625 L 32490.625 25519.53125 L 32505.46875 25537.5 L 32519.53125 25573.4375 L 32512.5 25627.604167 L 32490.625 25663.541667 L 32469.53125 25681.510417 L 32431.510417 25699.479167 L 32287.5 25699.479167 L 32334.375 25321.614583 L 32460.416667 25321.614583 L 32494.53125 25339.583333 L 32510.416667 25357.552083 L 32523.4375 25393.489583 L 32519.53125 25429.427083 L 32496.614583 25465.625 L 32476.5625 25483.59375 L 32438.541667 25501.5625 L 32312.5 25501.5625 " transform="matrix(0.015,0,0,0.015,0,0)"/>
<path style="fill:none;stroke-width:1;stroke-linecap:butt;stroke-linejoin:miter;stroke:rgb(0%,0%,0%);stroke-opacity:1;stroke-miterlimit:10;" d="M 32719.53125 25699.479167 L 32685.416667 25681.510417 L 32670.572917 25663.541667 L 32656.510417 25627.604167 L 32670.572917 25519.53125 L 32692.447917 25483.59375 L 32712.5 25465.625 L 32751.5625 25447.395833 L 32805.46875 25447.395833 L 32838.541667 25465.625 L 32854.427083 25483.59375 L 32868.489583 25519.53125 L 32854.427083 25627.604167 L 32832.552083 25663.541667 L 32811.458333 25681.510417 L 32773.4375 25699.479167 L 32719.53125 25699.479167 " transform="matrix(0.015,0,0,0.015,0,0)"/>
<path style="fill:none;stroke-width:1;stroke-linecap:butt;stroke-linejoin:miter;stroke:rgb(0%,0%,0%);stroke-opacity:1;stroke-miterlimit:10;" d="M 33169.53125 25699.479167 L 33194.53125 25501.5625 L 33180.46875 25465.625 L 33147.395833 25447.395833 L 33075.520833 25447.395833 L 33036.458333 25465.625 " transform="matrix(0.015,0,0,0.015,0,0)"/>
<path style="fill:none;stroke-width:1;stroke-linecap:butt;stroke-linejoin:miter;stroke:rgb(0%,0%,0%);stroke-opacity:1;stroke-miterlimit:10;" d="M 33171.614583 25681.510417 L 33133.59375 25699.479167 L 33043.489583 25699.479167 L 33009.375 25681.510417 L 32996.614583 25645.572917 L 33000.520833 25609.375 L 33023.4375 25573.4375 L 33061.458333 25555.46875 L 33151.5625 25555.46875 L 33189.583333 25537.5 " transform="matrix(0.015,0,0,0.015,0,0)"/>
<path style="fill:none;stroke-width:1;stroke-linecap:butt;stroke-linejoin:miter;stroke:rgb(0%,0%,0%);stroke-opacity:1;stroke-miterlimit:10;" d="M 33349.479167 25699.479167 L 33381.510417 25447.395833 " transform="matrix(0.015,0,0,0.015,0,0)"/>
<path style="fill:none;stroke-width:1;stroke-linecap:butt;stroke-linejoin:miter;stroke:rgb(0%,0%,0%);stroke-opacity:1;stroke-miterlimit:10;" d="M 33372.395833 25519.53125 L 33394.53125 25483.59375 L 33414.583333 25465.625 L 33453.385417 25447.395833 L 33489.583333 25447.395833 " transform="matrix(0.015,0,0,0.015,0,0)"/>
<path style="fill:none;stroke-width:1;stroke-linecap:butt;stroke-linejoin:miter;stroke:rgb(0%,0%,0%);stroke-opacity:1;stroke-miterlimit:10;" d="M 33745.572917 25699.479167 L 33792.447917 25321.614583 " transform="matrix(0.015,0,0,0.015,0,0)"/>
<path style="fill:none;stroke-width:1;stroke-linecap:butt;stroke-linejoin:miter;stroke:rgb(0%,0%,0%);stroke-opacity:1;stroke-miterlimit:10;" d="M 33747.395833 25681.510417 L 33709.375 25699.479167 L 33637.5 25699.479167 L 33603.385417 25681.510417 L 33587.5 25663.541667 L 33574.479167 25627.604167 L 33587.5 25519.53125 L 33610.416667 25483.59375 L 33630.46875 25465.625 L 33668.489583 25447.395833 L 33740.625 25447.395833 L 33774.479167 25465.625 " transform="matrix(0.015,0,0,0.015,0,0)"/>
<path style="fill:none;stroke-width:1;stroke-linecap:butt;stroke-linejoin:miter;stroke:rgb(0%,0%,0%);stroke-opacity:1;stroke-miterlimit:10;" d="M 34411.458333 25699.479167 L 34195.572917 25699.479167 " transform="matrix(0.015,0,0,0.015,0,0)"/>
<path style="fill:none;stroke-width:1;stroke-linecap:butt;stroke-linejoin:miter;stroke:rgb(0%,0%,0%);stroke-opacity:1;stroke-miterlimit:10;" d="M 34303.385417 25699.479167 L 34350.520833 25321.614583 L 34307.552083 25375.520833 L 34267.447917 25411.458333 L 34229.427083 25429.427083 " transform="matrix(0.015,0,0,0.015,0,0)"/>
<path style="fill:none;stroke-width:28;stroke-linecap:round;stroke-linejoin:round;stroke:rgb(0%,0%,0%);stroke-opacity:1;stroke-miterlimit:10;" d="M 28415.104167 24828.125 L 28321.09375 24828.125 " transform="matrix(0.015,0,0,0.015,0,0)"/>
<path style="fill:none;stroke-width:28;stroke-linecap:round;stroke-linejoin:round;stroke:rgb(0%,0%,0%);stroke-opacity:1;stroke-miterlimit:10;" d="M 28321.09375 24976.041667 L 28321.09375 24692.96875 L 28455.989583 24692.96875 " transform="matrix(0.015,0,0,0.015,0,0)"/>
<path style="fill:none;stroke-width:28;stroke-linecap:round;stroke-linejoin:round;stroke:rgb(0%,0%,0%);stroke-opacity:1;stroke-miterlimit:10;" d="M 28564.0625 24976.041667 L 28564.0625 24786.979167 " transform="matrix(0.015,0,0,0.015,0,0)"/>
<path style="fill:none;stroke-width:28;stroke-linecap:round;stroke-linejoin:round;stroke:rgb(0%,0%,0%);stroke-opacity:1;stroke-miterlimit:10;" d="M 28564.0625 24692.96875 L 28550 24705.989583 L 28564.0625 24720.052083 L 28577.083333 24705.989583 L 28564.0625 24692.96875 L 28564.0625 24720.052083 " transform="matrix(0.015,0,0,0.015,0,0)"/>
<path style="fill:none;stroke-width:28;stroke-linecap:round;stroke-linejoin:round;stroke:rgb(0%,0%,0%);stroke-opacity:1;stroke-miterlimit:10;" d="M 28739.0625 24976.041667 L 28711.979167 24963.020833 L 28698.958333 24935.9375 L 28698.958333 24692.96875 " transform="matrix(0.015,0,0,0.015,0,0)"/>
<path style="fill:none;stroke-width:28;stroke-linecap:round;stroke-linejoin:round;stroke:rgb(0%,0%,0%);stroke-opacity:1;stroke-miterlimit:10;" d="M 28954.947917 24963.020833 L 28928.125 24976.041667 L 28873.958333 24976.041667 L 28846.875 24963.020833 L 28834.114583 24935.9375 L 28834.114583 24828.125 L 28846.875 24801.041667 L 28873.958333 24786.979167 L 28928.125 24786.979167 L 28954.947917 24801.041667 L 28969.010417 24828.125 L 28969.010417 24854.947917 L 28834.114583 24882.03125 " transform="matrix(0.015,0,0,0.015,0,0)"/>
<path style="fill:none;stroke-width:28;stroke-linecap:round;stroke-linejoin:round;stroke:rgb(0%,0%,0%);stroke-opacity:1;stroke-miterlimit:10;" d="M 29090.104167 24948.958333 L 29103.90625 24963.020833 L 29090.104167 24976.041667 L 29077.083333 24963.020833 L 29090.104167 24948.958333 L 29090.104167 24976.041667 " transform="matrix(0.015,0,0,0.015,0,0)"/>
<path style="fill:none;stroke-width:28;stroke-linecap:round;stroke-linejoin:round;stroke:rgb(0%,0%,0%);stroke-opacity:1;stroke-miterlimit:10;" d="M 29090.104167 24801.041667 L 29103.90625 24814.0625 L 29090.104167 24828.125 L 29077.083333 24814.0625 L 29090.104167 24801.041667 L 29090.104167 24828.125 " transform="matrix(0.015,0,0,0.015,0,0)"/>
<path style="fill:none;stroke-width:28;stroke-linecap:round;stroke-linejoin:round;stroke:rgb(0%,0%,0%);stroke-opacity:1;stroke-miterlimit:10;" d="M 29414.0625 24786.979167 L 29563.020833 24786.979167 L 29414.0625 24976.041667 L 29563.020833 24976.041667 " transform="matrix(0.015,0,0,0.015,0,0)"/>
<path style="fill:none;stroke-width:28;stroke-linecap:round;stroke-linejoin:round;stroke:rgb(0%,0%,0%);stroke-opacity:1;stroke-miterlimit:10;" d="M 29671.09375 24867.96875 L 29886.979167 24867.96875 " transform="matrix(0.015,0,0,0.015,0,0)"/>
<path style="fill:none;stroke-width:28;stroke-linecap:round;stroke-linejoin:round;stroke:rgb(0%,0%,0%);stroke-opacity:1;stroke-miterlimit:10;" d="M 30021.875 24976.041667 L 30021.875 24692.96875 " transform="matrix(0.015,0,0,0.015,0,0)"/>
<path style="fill:none;stroke-width:28;stroke-linecap:round;stroke-linejoin:round;stroke:rgb(0%,0%,0%);stroke-opacity:1;stroke-miterlimit:10;" d="M 30021.875 24801.041667 L 30048.958333 24786.979167 L 30103.125 24786.979167 L 30129.947917 24801.041667 L 30142.96875 24814.0625 L 30157.03125 24840.885417 L 30157.03125 24921.875 L 30142.96875 24948.958333 L 30129.947917 24963.020833 L 30103.125 24976.041667 L 30048.958333 24976.041667 L 30021.875 24963.020833 " transform="matrix(0.015,0,0,0.015,0,0)"/>
<path style="fill:none;stroke-width:28;stroke-linecap:round;stroke-linejoin:round;stroke:rgb(0%,0%,0%);stroke-opacity:1;stroke-miterlimit:10;" d="M 30319.010417 24976.041667 L 30291.927083 24963.020833 L 30278.125 24948.958333 L 30265.104167 24921.875 L 30265.104167 24840.885417 L 30278.125 24814.0625 L 30291.927083 24801.041667 L 30319.010417 24786.979167 L 30359.114583 24786.979167 L 30385.9375 24801.041667 L 30400 24814.0625 L 30413.020833 24840.885417 L 30413.020833 24921.875 L 30400 24948.958333 L 30385.9375 24963.020833 L 30359.114583 24976.041667 L 30319.010417 24976.041667 " transform="matrix(0.015,0,0,0.015,0,0)"/>
<path style="fill:none;stroke-width:28;stroke-linecap:round;stroke-linejoin:round;stroke:rgb(0%,0%,0%);stroke-opacity:1;stroke-miterlimit:10;" d="M 30655.989583 24976.041667 L 30655.989583 24828.125 L 30642.96875 24801.041667 L 30615.885417 24786.979167 L 30561.979167 24786.979167 L 30534.895833 24801.041667 " transform="matrix(0.015,0,0,0.015,0,0)"/>
<path style="fill:none;stroke-width:28;stroke-linecap:round;stroke-linejoin:round;stroke:rgb(0%,0%,0%);stroke-opacity:1;stroke-miterlimit:10;" d="M 30655.989583 24963.020833 L 30628.90625 24976.041667 L 30561.979167 24976.041667 L 30534.895833 24963.020833 L 30521.09375 24935.9375 L 30521.09375 24909.114583 L 30534.895833 24882.03125 L 30561.979167 24867.96875 L 30628.90625 24867.96875 L 30655.989583 24854.947917 " transform="matrix(0.015,0,0,0.015,0,0)"/>
<path style="fill:none;stroke-width:28;stroke-linecap:round;stroke-linejoin:round;stroke:rgb(0%,0%,0%);stroke-opacity:1;stroke-miterlimit:10;" d="M 30790.885417 24976.041667 L 30790.885417 24786.979167 " transform="matrix(0.015,0,0,0.015,0,0)"/>
<path style="fill:none;stroke-width:28;stroke-linecap:round;stroke-linejoin:round;stroke:rgb(0%,0%,0%);stroke-opacity:1;stroke-miterlimit:10;" d="M 30790.885417 24840.885417 L 30804.947917 24814.0625 L 30817.96875 24801.041667 L 30845.052083 24786.979167 L 30871.875 24786.979167 " transform="matrix(0.015,0,0,0.015,0,0)"/>
<path style="fill:none;stroke-width:28;stroke-linecap:round;stroke-linejoin:round;stroke:rgb(0%,0%,0%);stroke-opacity:1;stroke-miterlimit:10;" d="M 31088.020833 24976.041667 L 31088.020833 24692.96875 " transform="matrix(0.015,0,0,0.015,0,0)"/>
<path style="fill:none;stroke-width:28;stroke-linecap:round;stroke-linejoin:round;stroke:rgb(0%,0%,0%);stroke-opacity:1;stroke-miterlimit:10;" d="M 31088.020833 24963.020833 L 31060.9375 24976.041667 L 31007.03125 24976.041667 L 30979.947917 24963.020833 L 30966.927083 24948.958333 L 30953.125 24921.875 L 30953.125 24840.885417 L 30966.927083 24814.0625 L 30979.947917 24801.041667 L 31007.03125 24786.979167 L 31060.9375 24786.979167 L 31088.020833 24801.041667 " transform="matrix(0.015,0,0,0.015,0,0)"/>
<path style="fill:none;stroke-width:28;stroke-linecap:round;stroke-linejoin:round;stroke:rgb(0%,0%,0%);stroke-opacity:1;stroke-miterlimit:10;" d="M 31222.916667 24867.96875 L 31439.0625 24867.96875 " transform="matrix(0.015,0,0,0.015,0,0)"/>
<path style="fill:none;stroke-width:28;stroke-linecap:round;stroke-linejoin:round;stroke:rgb(0%,0%,0%);stroke-opacity:1;stroke-miterlimit:10;" d="M 31721.875 24976.041667 L 31559.895833 24976.041667 " transform="matrix(0.015,0,0,0.015,0,0)"/>
<path style="fill:none;stroke-width:28;stroke-linecap:round;stroke-linejoin:round;stroke:rgb(0%,0%,0%);stroke-opacity:1;stroke-miterlimit:10;" d="M 31640.885417 24976.041667 L 31640.885417 24692.96875 L 31614.0625 24733.072917 L 31586.979167 24759.895833 L 31559.895833 24773.958333 " transform="matrix(0.015,0,0,0.015,0,0)"/>
<path style="fill:none;stroke-width:28;stroke-linecap:round;stroke-linejoin:round;stroke:rgb(0%,0%,0%);stroke-opacity:1;stroke-miterlimit:10;" d="M 31844.010417 24948.958333 L 31857.03125 24963.020833 L 31844.010417 24976.041667 L 31829.947917 24963.020833 L 31844.010417 24948.958333 L 31844.010417 24976.041667 " transform="matrix(0.015,0,0,0.015,0,0)"/>
<path style="fill:none;stroke-width:28;stroke-linecap:round;stroke-linejoin:round;stroke:rgb(0%,0%,0%);stroke-opacity:1;stroke-miterlimit:10;" d="M 31978.90625 24976.041667 L 31978.90625 24692.96875 " transform="matrix(0.015,0,0,0.015,0,0)"/>
<path style="fill:none;stroke-width:28;stroke-linecap:round;stroke-linejoin:round;stroke:rgb(0%,0%,0%);stroke-opacity:1;stroke-miterlimit:10;" d="M 32005.989583 24867.96875 L 32086.979167 24976.041667 " transform="matrix(0.015,0,0,0.015,0,0)"/>
<path style="fill:none;stroke-width:28;stroke-linecap:round;stroke-linejoin:round;stroke:rgb(0%,0%,0%);stroke-opacity:1;stroke-miterlimit:10;" d="M 32086.979167 24786.979167 L 31978.90625 24895.052083 " transform="matrix(0.015,0,0,0.015,0,0)"/>
<path style="fill:none;stroke-width:28;stroke-linecap:round;stroke-linejoin:round;stroke:rgb(0%,0%,0%);stroke-opacity:1;stroke-miterlimit:10;" d="M 32208.072917 24976.041667 L 32208.072917 24786.979167 " transform="matrix(0.015,0,0,0.015,0,0)"/>
<path style="fill:none;stroke-width:28;stroke-linecap:round;stroke-linejoin:round;stroke:rgb(0%,0%,0%);stroke-opacity:1;stroke-miterlimit:10;" d="M 32208.072917 24692.96875 L 32195.052083 24705.989583 L 32208.072917 24720.052083 L 32221.875 24705.989583 L 32208.072917 24692.96875 L 32208.072917 24720.052083 " transform="matrix(0.015,0,0,0.015,0,0)"/>
<path style="fill:none;stroke-width:28;stroke-linecap:round;stroke-linejoin:round;stroke:rgb(0%,0%,0%);stroke-opacity:1;stroke-miterlimit:10;" d="M 32465.104167 24963.020833 L 32438.020833 24976.041667 L 32384.114583 24976.041667 L 32357.03125 24963.020833 L 32342.96875 24948.958333 L 32329.947917 24921.875 L 32329.947917 24840.885417 L 32342.96875 24814.0625 L 32357.03125 24801.041667 L 32384.114583 24786.979167 L 32438.020833 24786.979167 L 32465.104167 24801.041667 " transform="matrix(0.015,0,0,0.015,0,0)"/>
<path style="fill:none;stroke-width:28;stroke-linecap:round;stroke-linejoin:round;stroke:rgb(0%,0%,0%);stroke-opacity:1;stroke-miterlimit:10;" d="M 32708.072917 24976.041667 L 32708.072917 24828.125 L 32694.010417 24801.041667 L 32666.927083 24786.979167 L 32613.020833 24786.979167 L 32585.9375 24801.041667 " transform="matrix(0.015,0,0,0.015,0,0)"/>
<path style="fill:none;stroke-width:28;stroke-linecap:round;stroke-linejoin:round;stroke:rgb(0%,0%,0%);stroke-opacity:1;stroke-miterlimit:10;" d="M 32708.072917 24963.020833 L 32680.989583 24976.041667 L 32613.020833 24976.041667 L 32585.9375 24963.020833 L 32572.916667 24935.9375 L 32572.916667 24909.114583 L 32585.9375 24882.03125 L 32613.020833 24867.96875 L 32680.989583 24867.96875 L 32708.072917 24854.947917 " transform="matrix(0.015,0,0,0.015,0,0)"/>
<path style="fill:none;stroke-width:28;stroke-linecap:round;stroke-linejoin:round;stroke:rgb(0%,0%,0%);stroke-opacity:1;stroke-miterlimit:10;" d="M 32964.0625 24976.041667 L 32964.0625 24692.96875 " transform="matrix(0.015,0,0,0.015,0,0)"/>
<path style="fill:none;stroke-width:28;stroke-linecap:round;stroke-linejoin:round;stroke:rgb(0%,0%,0%);stroke-opacity:1;stroke-miterlimit:10;" d="M 32964.0625 24963.020833 L 32936.979167 24976.041667 L 32883.072917 24976.041667 L 32855.989583 24963.020833 L 32842.96875 24948.958333 L 32828.90625 24921.875 L 32828.90625 24840.885417 L 32842.96875 24814.0625 L 32855.989583 24801.041667 L 32883.072917 24786.979167 L 32936.979167 24786.979167 L 32964.0625 24801.041667 " transform="matrix(0.015,0,0,0.015,0,0)"/>
<path style="fill:none;stroke-width:28;stroke-linecap:round;stroke-linejoin:round;stroke:rgb(0%,0%,0%);stroke-opacity:1;stroke-miterlimit:10;" d="M 33032.03125 25003.125 L 33247.916667 25003.125 " transform="matrix(0.015,0,0,0.015,0,0)"/>
<path style="fill:none;stroke-width:28;stroke-linecap:round;stroke-linejoin:round;stroke:rgb(0%,0%,0%);stroke-opacity:1;stroke-miterlimit:10;" d="M 33315.104167 24786.979167 L 33315.104167 25071.09375 " transform="matrix(0.015,0,0,0.015,0,0)"/>
<path style="fill:none;stroke-width:28;stroke-linecap:round;stroke-linejoin:round;stroke:rgb(0%,0%,0%);stroke-opacity:1;stroke-miterlimit:10;" d="M 33315.104167 24801.041667 L 33341.927083 24786.979167 L 33396.09375 24786.979167 L 33422.916667 24801.041667 L 33436.979167 24814.0625 L 33450 24840.885417 L 33450 24921.875 L 33436.979167 24948.958333 L 33422.916667 24963.020833 L 33396.09375 24976.041667 L 33341.927083 24976.041667 L 33315.104167 24963.020833 " transform="matrix(0.015,0,0,0.015,0,0)"/>
<path style="fill:none;stroke-width:28;stroke-linecap:round;stroke-linejoin:round;stroke:rgb(0%,0%,0%);stroke-opacity:1;stroke-miterlimit:10;" d="M 33692.96875 24963.020833 L 33665.885417 24976.041667 L 33611.979167 24976.041667 L 33584.895833 24963.020833 L 33571.875 24948.958333 L 33558.072917 24921.875 L 33558.072917 24840.885417 L 33571.875 24814.0625 L 33584.895833 24801.041667 L 33611.979167 24786.979167 L 33665.885417 24786.979167 L 33692.96875 24801.041667 " transform="matrix(0.015,0,0,0.015,0,0)"/>
<path style="fill:none;stroke-width:28;stroke-linecap:round;stroke-linejoin:round;stroke:rgb(0%,0%,0%);stroke-opacity:1;stroke-miterlimit:10;" d="M 33815.104167 24976.041667 L 33815.104167 24692.96875 " transform="matrix(0.015,0,0,0.015,0,0)"/>
<path style="fill:none;stroke-width:28;stroke-linecap:round;stroke-linejoin:round;stroke:rgb(0%,0%,0%);stroke-opacity:1;stroke-miterlimit:10;" d="M 33815.104167 24801.041667 L 33841.927083 24786.979167 L 33896.09375 24786.979167 L 33922.916667 24801.041667 L 33935.9375 24814.0625 L 33950 24840.885417 L 33950 24921.875 L 33935.9375 24948.958333 L 33922.916667 24963.020833 L 33896.09375 24976.041667 L 33841.927083 24976.041667 L 33815.104167 24963.020833 " transform="matrix(0.015,0,0,0.015,0,0)"/>
<path style="fill:none;stroke-width:28;stroke-linecap:round;stroke-linejoin:round;stroke:rgb(0%,0%,0%);stroke-opacity:1;stroke-miterlimit:10;" d="M 28064.0625 24053.90625 L 48473.958333 24053.90625 " transform="matrix(0.015,0,0,0.015,0,0)"/>
<path style="fill:none;stroke-width:28;stroke-linecap:round;stroke-linejoin:round;stroke:rgb(0%,0%,0%);stroke-opacity:1;stroke-miterlimit:10;" d="M 28307.03125 24452.083333 L 28347.916667 24465.885417 L 28415.104167 24465.885417 L 28441.927083 24452.083333 L 28455.989583 24439.0625 L 28469.010417 24411.979167 L 28469.010417 24384.895833 L 28455.989583 24358.072917 L 28441.927083 24344.010417 L 28415.104167 24330.989583 L 28360.9375 24316.927083 L 28334.114583 24303.90625 L 28321.09375 24290.104167 L 28307.03125 24263.020833 L 28307.03125 24235.9375 L 28321.09375 24209.114583 L 28334.114583 24196.09375 L 28360.9375 24182.03125 L 28428.90625 24182.03125 L 28469.010417 24196.09375 " transform="matrix(0.015,0,0,0.015,0,0)"/>
<path style="fill:none;stroke-width:28;stroke-linecap:round;stroke-linejoin:round;stroke:rgb(0%,0%,0%);stroke-opacity:1;stroke-miterlimit:10;" d="M 28590.885417 24465.885417 L 28590.885417 24182.03125 " transform="matrix(0.015,0,0,0.015,0,0)"/>
<path style="fill:none;stroke-width:28;stroke-linecap:round;stroke-linejoin:round;stroke:rgb(0%,0%,0%);stroke-opacity:1;stroke-miterlimit:10;" d="M 28711.979167 24465.885417 L 28711.979167 24316.927083 L 28698.958333 24290.104167 L 28671.875 24277.083333 L 28630.989583 24277.083333 L 28603.90625 24290.104167 L 28590.885417 24303.90625 " transform="matrix(0.015,0,0,0.015,0,0)"/>
<path style="fill:none;stroke-width:28;stroke-linecap:round;stroke-linejoin:round;stroke:rgb(0%,0%,0%);stroke-opacity:1;stroke-miterlimit:10;" d="M 28954.947917 24452.083333 L 28928.125 24465.885417 L 28873.958333 24465.885417 L 28846.875 24452.083333 L 28834.114583 24425 L 28834.114583 24316.927083 L 28846.875 24290.104167 L 28873.958333 24277.083333 L 28928.125 24277.083333 L 28954.947917 24290.104167 L 28969.010417 24316.927083 L 28969.010417 24344.010417 L 28834.114583 24371.09375 " transform="matrix(0.015,0,0,0.015,0,0)"/>
<path style="fill:none;stroke-width:28;stroke-linecap:round;stroke-linejoin:round;stroke:rgb(0%,0%,0%);stroke-opacity:1;stroke-miterlimit:10;" d="M 29197.916667 24452.083333 L 29171.09375 24465.885417 L 29116.927083 24465.885417 L 29090.104167 24452.083333 L 29077.083333 24425 L 29077.083333 24316.927083 L 29090.104167 24290.104167 L 29116.927083 24277.083333 L 29171.09375 24277.083333 L 29197.916667 24290.104167 L 29211.979167 24316.927083 L 29211.979167 24344.010417 L 29077.083333 24371.09375 " transform="matrix(0.015,0,0,0.015,0,0)"/>
<path style="fill:none;stroke-width:28;stroke-linecap:round;stroke-linejoin:round;stroke:rgb(0%,0%,0%);stroke-opacity:1;stroke-miterlimit:10;" d="M 29292.96875 24277.083333 L 29401.041667 24277.083333 " transform="matrix(0.015,0,0,0.015,0,0)"/>
<path style="fill:none;stroke-width:28;stroke-linecap:round;stroke-linejoin:round;stroke:rgb(0%,0%,0%);stroke-opacity:1;stroke-miterlimit:10;" d="M 29333.072917 24182.03125 L 29333.072917 24425 L 29346.875 24452.083333 L 29373.958333 24465.885417 L 29401.041667 24465.885417 " transform="matrix(0.015,0,0,0.015,0,0)"/>
<path style="fill:none;stroke-width:28;stroke-linecap:round;stroke-linejoin:round;stroke:rgb(0%,0%,0%);stroke-opacity:1;stroke-miterlimit:10;" d="M 29495.052083 24439.0625 L 29509.114583 24452.083333 L 29495.052083 24465.885417 L 29482.03125 24452.083333 L 29495.052083 24439.0625 L 29495.052083 24465.885417 " transform="matrix(0.015,0,0,0.015,0,0)"/>
<path style="fill:none;stroke-width:28;stroke-linecap:round;stroke-linejoin:round;stroke:rgb(0%,0%,0%);stroke-opacity:1;stroke-miterlimit:10;" d="M 29495.052083 24290.104167 L 29509.114583 24303.90625 L 29495.052083 24316.927083 L 29482.03125 24303.90625 L 29495.052083 24290.104167 L 29495.052083 24316.927083 " transform="matrix(0.015,0,0,0.015,0,0)"/>
<path style="fill:none;stroke-width:28;stroke-linecap:round;stroke-linejoin:round;stroke:rgb(0%,0%,0%);stroke-opacity:1;stroke-miterlimit:10;" d="M 31844.010417 25944.010417 L 31844.010417 26510.9375 " transform="matrix(0.015,0,0,0.015,0,0)"/>
<path style="fill:none;stroke-width:19;stroke-linecap:round;stroke-linejoin:round;stroke:rgb(0%,0%,0%);stroke-opacity:1;stroke-miterlimit:10;" d="M 9465.885417 15040.104167 L 46905.989583 15040.104167 " transform="matrix(0.015,0,0,0.015,0,0)"/>
<path style="fill:none;stroke-width:19;stroke-linecap:round;stroke-linejoin:round;stroke:rgb(0%,0%,0%);stroke-opacity:1;stroke-miterlimit:10;" d="M 9465.885417 18159.895833 L 9465.885417 15040.104167 " transform="matrix(0.015,0,0,0.015,0,0)"/>
<path style="fill:none;stroke-width:19;stroke-linecap:round;stroke-linejoin:round;stroke:rgb(0%,0%,0%);stroke-opacity:1;stroke-miterlimit:10;" d="M 46905.989583 18159.895833 L 9465.885417 18159.895833 " transform="matrix(0.015,0,0,0.015,0,0)"/>
<path style="fill:none;stroke-width:47;stroke-linecap:round;stroke-linejoin:round;stroke:rgb(0%,0%,0%);stroke-opacity:1;stroke-miterlimit:10;" d="M 9862.5 15774.479167 L 9862.5 15900.520833 L 9578.385417 15774.479167 L 9578.385417 15900.520833 " transform="matrix(0.015,0,0,0.015,0,0)"/>
<path style="fill:none;stroke-width:47;stroke-linecap:round;stroke-linejoin:round;stroke:rgb(0%,0%,0%);stroke-opacity:1;stroke-miterlimit:10;" d="M 9727.604167 16179.427083 L 9713.541667 16206.510417 L 9700.520833 16215.625 L 9673.4375 16224.479167 L 9632.552083 16224.479167 L 9605.46875 16215.625 L 9592.447917 16206.510417 L 9578.385417 16188.541667 L 9578.385417 16116.40625 L 9862.5 16116.40625 L 9862.5 16179.427083 L 9848.4375 16197.395833 L 9835.416667 16206.510417 L 9808.59375 16215.625 L 9781.510417 16215.625 L 9754.427083 16206.510417 L 9740.625 16197.395833 L 9727.604167 16179.427083 L 9727.604167 16116.40625 " transform="matrix(0.015,0,0,0.015,0,0)"/>
<path style="fill:none;stroke-width:47;stroke-linecap:round;stroke-linejoin:round;stroke:rgb(0%,0%,0%);stroke-opacity:1;stroke-miterlimit:10;" d="M 9578.385417 16332.552083 L 9592.447917 16314.583333 L 9605.46875 16305.46875 L 9632.552083 16296.614583 L 9713.541667 16296.614583 L 9740.625 16305.46875 L 9754.427083 16314.583333 L 9767.447917 16332.552083 L 9767.447917 16359.375 L 9754.427083 16377.604167 L 9740.625 16386.458333 L 9713.541667 16395.572917 L 9632.552083 16395.572917 L 9605.46875 16386.458333 L 9592.447917 16377.604167 L 9578.385417 16359.375 L 9578.385417 16332.552083 " transform="matrix(0.015,0,0,0.015,0,0)"/>
<path style="fill:none;stroke-width:47;stroke-linecap:round;stroke-linejoin:round;stroke:rgb(0%,0%,0%);stroke-opacity:1;stroke-miterlimit:10;" d="M 9578.385417 16556.510417 L 9727.604167 16556.510417 L 9754.427083 16547.395833 L 9767.447917 16529.427083 L 9767.447917 16493.489583 L 9754.427083 16476.5625 " transform="matrix(0.015,0,0,0.015,0,0)"/>
<path style="fill:none;stroke-width:47;stroke-linecap:round;stroke-linejoin:round;stroke:rgb(0%,0%,0%);stroke-opacity:1;stroke-miterlimit:10;" d="M 9592.447917 16556.510417 L 9578.385417 16538.541667 L 9578.385417 16493.489583 L 9592.447917 16476.5625 L 9619.53125 16467.447917 L 9646.614583 16467.447917 L 9673.4375 16476.5625 L 9686.458333 16493.489583 L 9686.458333 16538.541667 L 9700.520833 16556.510417 " transform="matrix(0.015,0,0,0.015,0,0)"/>
<path style="fill:none;stroke-width:47;stroke-linecap:round;stroke-linejoin:round;stroke:rgb(0%,0%,0%);stroke-opacity:1;stroke-miterlimit:10;" d="M 9578.385417 16646.614583 L 9767.447917 16646.614583 " transform="matrix(0.015,0,0,0.015,0,0)"/>
<path style="fill:none;stroke-width:47;stroke-linecap:round;stroke-linejoin:round;stroke:rgb(0%,0%,0%);stroke-opacity:1;stroke-miterlimit:10;" d="M 9713.541667 16646.614583 L 9740.625 16655.46875 L 9754.427083 16664.583333 L 9767.447917 16682.552083 L 9767.447917 16700.520833 " transform="matrix(0.015,0,0,0.015,0,0)"/>
<path style="fill:none;stroke-width:47;stroke-linecap:round;stroke-linejoin:round;stroke:rgb(0%,0%,0%);stroke-opacity:1;stroke-miterlimit:10;" d="M 9578.385417 16844.53125 L 9862.5 16844.53125 " transform="matrix(0.015,0,0,0.015,0,0)"/>
<path style="fill:none;stroke-width:47;stroke-linecap:round;stroke-linejoin:round;stroke:rgb(0%,0%,0%);stroke-opacity:1;stroke-miterlimit:10;" d="M 9592.447917 16844.53125 L 9578.385417 16826.5625 L 9578.385417 16790.625 L 9592.447917 16772.395833 L 9605.46875 16763.541667 L 9632.552083 16754.427083 L 9713.541667 16754.427083 L 9740.625 16763.541667 L 9754.427083 16772.395833 L 9767.447917 16790.625 L 9767.447917 16826.5625 L 9754.427083 16844.53125 " transform="matrix(0.015,0,0,0.015,0,0)"/>
<path style="fill:none;stroke-width:47;stroke-linecap:round;stroke-linejoin:round;stroke:rgb(0%,0%,0%);stroke-opacity:1;stroke-miterlimit:10;" d="M 9578.385417 17177.604167 L 9578.385417 17069.53125 " transform="matrix(0.015,0,0,0.015,0,0)"/>
<path style="fill:none;stroke-width:47;stroke-linecap:round;stroke-linejoin:round;stroke:rgb(0%,0%,0%);stroke-opacity:1;stroke-miterlimit:10;" d="M 9578.385417 17123.4375 L 9862.5 17123.4375 L 9821.614583 17105.46875 L 9794.53125 17087.5 L 9781.510417 17069.53125 " transform="matrix(0.015,0,0,0.015,0,0)"/>
<path style="fill:none;stroke-width:24;stroke-linecap:round;stroke-linejoin:round;stroke:rgb(0%,0%,0%);stroke-opacity:1;stroke-miterlimit:10;" d="M 10005.989583 17851.041667 L 9942.96875 17671.09375 " transform="matrix(0.015,0,0,0.015,0,0)"/>
<path style="fill:none;stroke-width:24;stroke-linecap:round;stroke-linejoin:round;stroke:rgb(0%,0%,0%);stroke-opacity:1;stroke-miterlimit:10;" d="M 9897.916667 17851.041667 L 9897.916667 17472.916667 L 9970.052083 17472.916667 L 9988.020833 17490.885417 L 9996.875 17509.114583 L 10005.989583 17545.052083 L 10005.989583 17598.958333 L 9996.875 17634.895833 L 9988.020833 17653.125 L 9970.052083 17671.09375 L 9897.916667 17671.09375 " transform="matrix(0.015,0,0,0.015,0,0)"/>
<path style="fill:none;stroke-width:24;stroke-linecap:round;stroke-linejoin:round;stroke:rgb(0%,0%,0%);stroke-opacity:1;stroke-miterlimit:10;" d="M 10159.114583 17833.072917 L 10140.885417 17851.041667 L 10104.947917 17851.041667 L 10086.979167 17833.072917 L 10078.125 17796.875 L 10078.125 17653.125 L 10086.979167 17616.927083 L 10104.947917 17598.958333 L 10140.885417 17598.958333 L 10159.114583 17616.927083 L 10167.96875 17653.125 L 10167.96875 17689.0625 L 10078.125 17725 " transform="matrix(0.015,0,0,0.015,0,0)"/>
<path style="fill:none;stroke-width:24;stroke-linecap:round;stroke-linejoin:round;stroke:rgb(0%,0%,0%);stroke-opacity:1;stroke-miterlimit:10;" d="M 10230.989583 17598.958333 L 10276.041667 17851.041667 L 10321.09375 17598.958333 " transform="matrix(0.015,0,0,0.015,0,0)"/>
<path style="fill:none;stroke-width:24;stroke-linecap:round;stroke-linejoin:round;stroke:rgb(0%,0%,0%);stroke-opacity:1;stroke-miterlimit:10;" d="M 10420.052083 17851.041667 L 10402.083333 17833.072917 L 10392.96875 17815.104167 L 10384.114583 17778.90625 L 10384.114583 17671.09375 L 10392.96875 17634.895833 L 10402.083333 17616.927083 L 10420.052083 17598.958333 L 10446.875 17598.958333 L 10465.104167 17616.927083 L 10473.958333 17634.895833 L 10483.072917 17671.09375 L 10483.072917 17778.90625 L 10473.958333 17815.104167 L 10465.104167 17833.072917 L 10446.875 17851.041667 L 10420.052083 17851.041667 " transform="matrix(0.015,0,0,0.015,0,0)"/>
<path style="fill:none;stroke-width:71;stroke-linecap:round;stroke-linejoin:round;stroke:rgb(0%,0%,0%);stroke-opacity:1;stroke-miterlimit:10;" d="M 10207.552083 17180.46875 L 10247.395833 17193.489583 L 10261.458333 17207.552083 L 10274.479167 17234.375 L 10274.479167 17274.479167 L 10261.458333 17301.5625 L 10247.395833 17315.625 L 10220.572917 17328.385417 L 10112.5 17328.385417 L 10112.5 17045.572917 L 10207.552083 17045.572917 L 10234.375 17058.59375 L 10247.395833 17072.395833 L 10261.458333 17099.479167 L 10261.458333 17126.5625 L 10247.395833 17153.385417 L 10234.375 17166.40625 L 10207.552083 17180.46875 L 10112.5 17180.46875 " transform="matrix(0.015,0,0,0.015,0,0)"/>
<path style="fill:none;stroke-width:71;stroke-linecap:round;stroke-linejoin:round;stroke:rgb(0%,0%,0%);stroke-opacity:1;stroke-miterlimit:10;" d="M 10274.479167 16848.4375 L 10180.46875 16713.541667 " transform="matrix(0.015,0,0,0.015,0,0)"/>
<path style="fill:none;stroke-width:71;stroke-linecap:round;stroke-linejoin:round;stroke:rgb(0%,0%,0%);stroke-opacity:1;stroke-miterlimit:10;" d="M 10112.5 16848.4375 L 10112.5 16565.625 L 10220.572917 16565.625 L 10247.395833 16578.385417 L 10261.458333 16592.447917 L 10274.479167 16619.53125 L 10274.479167 16659.375 L 10261.458333 16686.458333 L 10247.395833 16700.520833 L 10220.572917 16713.541667 L 10112.5 16713.541667 " transform="matrix(0.015,0,0,0.015,0,0)"/>
<path style="fill:none;stroke-width:71;stroke-linecap:round;stroke-linejoin:round;stroke:rgb(0%,0%,0%);stroke-opacity:1;stroke-miterlimit:10;" d="M 10261.458333 16098.4375 L 10234.375 16085.416667 L 10193.489583 16085.416667 L 10153.385417 16098.4375 L 10126.5625 16125.520833 L 10112.5 16152.604167 L 10099.479167 16206.510417 L 10099.479167 16247.395833 L 10112.5 16301.5625 L 10126.5625 16328.385417 L 10153.385417 16355.46875 L 10193.489583 16368.489583 L 10220.572917 16368.489583 L 10261.458333 16355.46875 L 10274.479167 16341.40625 L 10274.479167 16247.395833 L 10220.572917 16247.395833 " transform="matrix(0.015,0,0,0.015,0,0)"/>
<path style="fill:none;stroke-width:71;stroke-linecap:round;stroke-linejoin:round;stroke:rgb(0%,0%,0%);stroke-opacity:1;stroke-miterlimit:10;" d="M 10207.552083 15740.625 L 10247.395833 15753.385417 L 10261.458333 15767.447917 L 10274.479167 15794.53125 L 10274.479167 15834.375 L 10261.458333 15861.458333 L 10247.395833 15875.520833 L 10220.572917 15888.541667 L 10112.5 15888.541667 L 10112.5 15605.46875 L 10207.552083 15605.46875 L 10234.375 15618.489583 L 10247.395833 15632.552083 L 10261.458333 15659.375 L 10261.458333 15686.458333 L 10247.395833 15713.541667 L 10234.375 15726.5625 L 10207.552083 15740.625 L 10112.5 15740.625 " transform="matrix(0.015,0,0,0.015,0,0)"/>
<path style="fill:none;stroke-width:378;stroke-linecap:round;stroke-linejoin:round;stroke:rgb(0%,0%,0%);stroke-opacity:1;stroke-miterlimit:10;" d="M 10905.989583 15520.052083 L 10665.885417 15759.895833 " transform="matrix(0.015,0,0,0.015,0,0)"/>
<path style="fill:none;stroke-width:378;stroke-linecap:round;stroke-linejoin:round;stroke:rgb(0%,0%,0%);stroke-opacity:1;stroke-miterlimit:10;" d="M 11146.09375 16959.895833 L 10905.989583 16720.052083 " transform="matrix(0.015,0,0,0.015,0,0)"/>
<path style="fill:none;stroke-width:378;stroke-linecap:round;stroke-linejoin:round;stroke:rgb(0%,0%,0%);stroke-opacity:1;stroke-miterlimit:10;" d="M 10905.989583 16720.052083 L 10665.885417 16720.052083 " transform="matrix(0.015,0,0,0.015,0,0)"/>
<path style="fill:none;stroke-width:378;stroke-linecap:round;stroke-linejoin:round;stroke:rgb(0%,0%,0%);stroke-opacity:1;stroke-miterlimit:10;" d="M 10905.989583 15520.052083 L 46532.03125 15520.052083 " transform="matrix(0.015,0,0,0.015,0,0)"/>
<path style="fill:none;stroke-width:378;stroke-linecap:round;stroke-linejoin:round;stroke:rgb(0%,0%,0%);stroke-opacity:1;stroke-miterlimit:10;" d="M 10905.989583 17679.947917 L 46532.03125 17679.947917 " transform="matrix(0.015,0,0,0.015,0,0)"/>
<path style="fill:none;stroke-width:378;stroke-linecap:round;stroke-linejoin:round;stroke:rgb(0%,0%,0%);stroke-opacity:1;stroke-miterlimit:10;" d="M 11146.09375 16959.895833 L 46532.03125 16959.895833 " transform="matrix(0.015,0,0,0.015,0,0)"/>
<path style="fill:none;stroke-width:378;stroke-linecap:round;stroke-linejoin:round;stroke:rgb(0%,0%,0%);stroke-opacity:1;stroke-miterlimit:10;" d="M 10665.885417 16240.104167 L 46532.03125 16240.104167 " transform="matrix(0.015,0,0,0.015,0,0)"/>
<path style="fill:none;stroke-width:378;stroke-linecap:round;stroke-linejoin:round;stroke:rgb(0%,0%,0%);stroke-opacity:1;stroke-miterlimit:10;" d="M 10665.885417 16240.104167 L 46532.03125 16240.104167 " transform="matrix(0.015,0,0,0.015,0,0)"/>
<path style="fill:none;stroke-width:378;stroke-linecap:round;stroke-linejoin:round;stroke:rgb(0%,0%,0%);stroke-opacity:1;stroke-miterlimit:10;" d="M 10905.989583 17679.947917 L 10665.885417 17440.104167 " transform="matrix(0.015,0,0,0.015,0,0)"/>
<path style="fill:none;stroke-width:378;stroke-linecap:round;stroke-linejoin:round;stroke:rgb(0%,0%,0%);stroke-opacity:1;stroke-miterlimit:10;" d="M 10665.885417 17440.104167 L 10665.885417 17200 " transform="matrix(0.015,0,0,0.015,0,0)"/>
<path style=" stroke:none;fill-rule:nonzero;fill:rgb(0%,0%,0%);fill-opacity:1;" d="M 159.988281 258 L 157.582031 258 C 157.582031 256.667969 158.660156 255.589844 159.988281 255.589844 C 161.320312 255.589844 162.398438 256.667969 162.398438 258 Z M 159.988281 258 "/>
<path style=" stroke:none;fill-rule:nonzero;fill:rgb(0%,0%,0%);fill-opacity:1;" d="M 159.988281 258 L 162.398438 258 C 162.398438 259.332031 161.320312 260.410156 159.988281 260.410156 C 158.660156 260.410156 157.582031 259.332031 157.582031 258 Z M 159.988281 258 "/>
<path style=" stroke:none;fill-rule:nonzero;fill:rgb(0%,0%,0%);fill-opacity:1;" d="M 159.988281 250.800781 L 157.582031 250.800781 C 157.582031 249.46875 158.660156 248.390625 159.988281 248.390625 C 161.320312 248.390625 162.398438 249.46875 162.398438 250.800781 Z M 159.988281 250.800781 "/>
<path style=" stroke:none;fill-rule:nonzero;fill:rgb(0%,0%,0%);fill-opacity:1;" d="M 159.988281 250.800781 L 162.398438 250.800781 C 162.398438 252.128906 161.320312 253.210938 159.988281 253.210938 C 158.660156 253.210938 157.582031 252.128906 157.582031 250.800781 Z M 159.988281 250.800781 "/>
<path style=" stroke:none;fill-rule:nonzero;fill:rgb(0%,0%,0%);fill-opacity:1;" d="M 159.988281 243.601562 L 157.582031 243.601562 C 157.582031 242.269531 158.660156 241.191406 159.988281 241.191406 C 161.320312 241.191406 162.398438 242.269531 162.398438 243.601562 Z M 159.988281 243.601562 "/>
<path style=" stroke:none;fill-rule:nonzero;fill:rgb(0%,0%,0%);fill-opacity:1;" d="M 159.988281 243.601562 L 162.398438 243.601562 C 162.398438 244.929688 161.320312 246.007812 159.988281 246.007812 C 158.660156 246.007812 157.582031 244.929688 157.582031 243.601562 Z M 159.988281 243.601562 "/>
<path style=" stroke:none;fill-rule:nonzero;fill:rgb(0%,0%,0%);fill-opacity:1;" d="M 162.414062 236.398438 C 162.414062 237.738281 161.328125 238.824219 159.988281 238.824219 C 158.652344 238.824219 157.566406 237.738281 157.566406 236.398438 C 157.566406 235.0625 158.652344 233.976562 159.988281 233.976562 C 161.328125 233.976562 162.414062 235.0625 162.414062 236.398438 Z M 162.414062 236.398438 "/>
<path style=" stroke:none;fill-rule:nonzero;fill:rgb(100%,100%,100%);fill-opacity:1;" d="M 161.40625 258 C 161.40625 258.78125 160.773438 259.417969 159.988281 259.417969 C 159.207031 259.417969 158.574219 258.78125 158.574219 258 C 158.574219 257.21875 159.207031 256.582031 159.988281 256.582031 C 160.773438 256.582031 161.40625 257.21875 161.40625 258 Z M 161.40625 258 "/>
<path style=" stroke:none;fill-rule:nonzero;fill:rgb(100%,100%,100%);fill-opacity:1;" d="M 161.40625 250.800781 C 161.40625 251.582031 160.773438 252.21875 159.988281 252.21875 C 159.207031 252.21875 158.574219 251.582031 158.574219 250.800781 C 158.574219 250.015625 159.207031 249.382812 159.988281 249.382812 C 160.773438 249.382812 161.40625 250.015625 161.40625 250.800781 Z M 161.40625 250.800781 "/>
<path style=" stroke:none;fill-rule:nonzero;fill:rgb(100%,100%,100%);fill-opacity:1;" d="M 161.40625 243.601562 C 161.40625 244.382812 160.773438 245.015625 159.988281 245.015625 C 159.207031 245.015625 158.574219 244.382812 158.574219 243.601562 C 158.574219 242.816406 159.207031 242.183594 159.988281 242.183594 C 160.773438 242.183594 161.40625 242.816406 161.40625 243.601562 Z M 161.40625 243.601562 "/>
<path style=" stroke:none;fill-rule:nonzero;fill:rgb(100%,100%,100%);fill-opacity:1;" d="M 161.40625 236.398438 C 161.40625 237.183594 160.773438 237.816406 159.988281 237.816406 C 159.207031 237.816406 158.574219 237.183594 158.574219 236.398438 C 158.574219 235.617188 159.207031 234.984375 159.988281 234.984375 C 160.773438 234.984375 161.40625 235.617188 161.40625 236.398438 Z M 161.40625 236.398438 "/>
</g>
</svg>
